<svg xmlns="http://www.w3.org/2000/svg" viewBox="0 0 64 64" role="img" aria-label="微信支付">
  <rect width="64" height="64" rx="14" fill="#07c160"/>
  <path d="M26.2 18c-8.1 0-14.7 5.4-14.7 12.1 0 3.9 2.2 7.4 5.8 9.6l-1.5 5.3 5.8-2.9c1.4.3 2.9.5 4.5.5.6 0 1.2 0 1.8-.1-1.7-1.7-2.7-4-2.7-6.6 0-5.8 5.3-10.6 11.9-10.6.4 0 .7 0 1.1.1-1.8-4.4-6.8-7.4-12-7.4Zm-5.1 8.5a1.9 1.9 0 1 1 0 3.8 1.9 1.9 0 0 1 0-3.8Zm10.3 0a1.9 1.9 0 1 1 0 3.8 1.9 1.9 0 0 1 0-3.8Z" fill="#fff"/>
  <path d="M38.8 28.2c-5.8 0-10.4 3.8-10.4 8.5 0 4.7 4.7 8.5 10.4 8.5 1.2 0 2.4-.2 3.5-.5l4.5 2.2-1.1-3.9c2.2-1.6 3.5-3.8 3.5-6.3 0-4.7-4.7-8.5-10.4-8.5Zm-3.6 6.2a1.4 1.4 0 1 1 0 2.8 1.4 1.4 0 0 1 0-2.8Zm7.3 0a1.4 1.4 0 1 1 0 2.8 1.4 1.4 0 0 1 0-2.8Z" fill="#fff"/>
</svg>
